<?xml version="1.0" encoding="iso-8859-1"?>
<!-- Generator: Adobe Illustrator 21.0.0, SVG Export Plug-In . SVG Version: 6.00 Build 0)  -->
<svg version="1.1" id="Capa_1" xmlns="http://www.w3.org/2000/svg" xmlns:xlink="http://www.w3.org/1999/xlink" x="0px" y="0px"
	 viewBox="0 0 512.001 512.001" style="enable-background:new 0 0 512.001 512.001;" xml:space="preserve">
<path style="fill:#CCCCCC;" d="M327.376,36.722C324.953,16.044,307.369,0,286.044,0H55.47C32.492,0,13.851,18.641,13.851,41.619
	v24.444l24.266,177.971L13.851,443.191v27.191c0,22.99,18.641,41.619,41.618,41.619h230.574c22.99,0,41.619-18.628,41.619-41.619
	v-2.945l-0.016-24.245L303.667,244.02l23.728-178.287L327.376,36.722z"/>
<rect x="13.851" y="66.06" style="fill:#4D4D4D;" width="313.81" height="377.13"/>
<circle style="fill:#808080;" cx="170.761" cy="478.97" r="20.503"/>
<path style="fill:#ADADAD;" d="M327.596,370.647H226.424v49.709v51.847v24.245h92.057c5.74-7.134,9.18-16.195,9.18-26.066
	L327.596,370.647z"/>
<g>
	<polygon style="fill:#3B3B3B;" points="327.596,370.647 226.424,370.647 176.716,420.356 226.424,420.356 327.662,421 	"/>
	<polygon style="fill:#3B3B3B;" points="327.509,237.229 226.424,237.229 226.424,277.791 176.716,327.5 226.424,327.5 
		327.568,327.5 	"/>
	<polygon style="fill:#3B3B3B;" points="226.424,95.074 226.424,145.268 176.716,194.976 226.424,194.976 327.481,194.976 
		327.396,65.734 226.424,65.734 	"/>
</g>
<polygon style="fill:#A6E2E3;" points="498.151,341.636 498.151,467.436 327.662,467.436 197.413,467.436 197.413,443.191 
	197.413,391.344 147.704,391.344 197.413,341.636 327.662,341.636 "/>
<polygon style="fill:#FFA638;" points="498.151,208.217 498.151,298.489 327.662,298.489 197.413,298.489 147.704,298.489 
	197.413,248.78 197.413,208.217 327.662,208.217 "/>
<polygon style="fill:#A6E2E3;" points="498.151,36.722 498.151,165.965 327.662,165.965 197.413,165.965 147.704,165.965 
	197.413,116.256 197.413,66.063 197.413,36.722 327.377,36.722 "/>
<g>
	<path style="fill:#4D4D4D;" d="M446.424,91.487h-202.66c-4.143,0-7.5-3.358-7.5-7.5s3.357-7.5,7.5-7.5h202.66
		c4.143,0,7.5,3.358,7.5,7.5S450.566,91.487,446.424,91.487z"/>
	<path style="fill:#4D4D4D;" d="M360.775,127.676H243.764c-4.143,0-7.5-3.358-7.5-7.5s3.357-7.5,7.5-7.5h117.012
		c4.143,0,7.5,3.358,7.5,7.5S364.918,127.676,360.775,127.676z"/>
	<path style="fill:#4D4D4D;" d="M446.424,394.587h-202.66c-4.143,0-7.5-3.358-7.5-7.5s3.357-7.5,7.5-7.5h202.66
		c4.143,0,7.5,3.358,7.5,7.5S450.566,394.587,446.424,394.587z"/>
	<path style="fill:#4D4D4D;" d="M358.363,430.776h-114.6c-4.143,0-7.5-3.358-7.5-7.5s3.357-7.5,7.5-7.5h114.6
		c4.143,0,7.5,3.358,7.5,7.5S362.506,430.776,358.363,430.776z"/>
	<path style="fill:#4D4D4D;" d="M446.424,260.932h-202.66c-4.143,0-7.5-3.358-7.5-7.5s3.357-7.5,7.5-7.5h202.66
		c4.143,0,7.5,3.358,7.5,7.5S450.566,260.932,446.424,260.932z"/>
</g>
<g>
</g>
<g>
</g>
<g>
</g>
<g>
</g>
<g>
</g>
<g>
</g>
<g>
</g>
<g>
</g>
<g>
</g>
<g>
</g>
<g>
</g>
<g>
</g>
<g>
</g>
<g>
</g>
<g>
</g>
</svg>
